<svg width="1001" height="730" viewBox="0 0 1001 730" fill="none" xmlns="http://www.w3.org/2000/svg">
<path opacity="0.5" d="M925.902 644.67C963.779 742.171 618.506 758.987 484.355 699.363C350.214 639.739 283.559 746.262 149.496 699.363C120.187 689.103 96.4278 671.049 79.7667 647.445C40.43 591.978 40.3526 506.129 99.2802 421.043C105.449 411.944 112.392 402.912 120.032 393.89C120.032 393.89 158.296 371.679 77.8319 191.867C5.01822 29.1807 244.609 -65.4683 327.539 53.1718C364.023 105.322 426.433 104.78 497.168 74.8523C517.456 66.2951 537.146 52.9065 559.733 42.4587C615.808 16.4775 672.447 20.723 697.201 23.9844C782.751 35.2724 842.508 72.5527 765.139 132.11C699.954 182.249 711.065 241.397 778.097 220.568C790.513 216.787 804.863 208.617 821.06 195.04C867.03 156.466 940.009 172.519 960.065 219.263C972.403 247.887 964.852 287.998 919.335 334.122C811.109 443.818 872.591 528.97 913.475 616.223C916.87 623.398 920.109 630.651 923.116 637.903C924.133 640.126 925.051 642.436 925.902 644.67Z" fill="url(#paint0_linear)"/>
<path d="M38.5616 505.377C42.6744 509.855 44.764 516.831 43.5478 525.731C41.005 544.194 67.351 524.426 78.429 543.796C89.4184 563.033 86.2897 573.083 98.0531 578.788C109.816 584.492 128.446 573.735 168.014 630.109C174.206 633.127 165.615 650.993 159.313 647.953C115.19 652.762 82.8955 651.093 80.9276 629.788C79.7446 617.052 73.4428 611.391 64.0785 607.588C57.9425 604.924 50.3914 603.144 42.188 600.568C21.5578 594.111 29.3964 574.067 29.2084 558.887C29.0205 543.708 -3.68266 547.666 0.352716 529.799C4.27753 511.922 5.08461 500.778 19.8441 499.153C27.3842 498.29 34.1725 500.501 38.5616 505.377Z" fill="#7035BB"/>
<path d="M170.535 642.348C170.015 643.42 168.788 643.973 167.616 643.608C162.862 642.127 50.7893 606.428 23.3045 528.595C22.8512 527.323 23.5256 525.941 24.786 525.488C26.0574 525.035 27.4394 525.709 27.8927 526.969C54.5483 602.492 167.915 638.6 169.053 638.954C170.336 639.352 171.055 640.723 170.657 642.005C170.623 642.127 170.579 642.248 170.535 642.348Z" fill="white"/>
<path d="M154.217 440.148C156.936 445.764 159.347 453.702 161.414 462.856C167.86 491.203 146.621 481.905 159.722 487.555C172.901 493.249 140.021 514.487 146.334 524.15C147.804 526.372 150.27 527.201 153.399 527.201L153.476 527.245C160.574 527.511 170.878 524.349 179.822 526.936C180.574 527.135 181.414 527.389 182.155 527.798C185.615 529.169 188.722 531.546 191.309 535.471C196.472 543.309 192.591 551.867 185.77 562.038C182.199 567.301 177.799 573.083 173.509 579.462C173.056 580.081 172.614 580.689 172.238 581.352C170.701 583.53 169.164 585.919 167.826 588.318C165.516 591.9 163.404 595.703 161.58 599.772C160.872 601.43 160.165 603.099 159.501 604.89C159.269 605.299 159.081 605.841 158.937 606.305C157.887 608.97 157.091 611.778 156.384 614.62C155.875 616.499 155.499 618.566 155.156 620.534C154.725 622.679 154.183 624.426 153.531 625.797C153.144 626.88 152.647 627.787 152.017 628.528C151.254 629.512 150.303 630.064 149.275 630.363C148.501 630.584 147.616 630.628 146.643 630.418C145.339 630.23 144.056 629.633 142.564 628.804C142.564 628.804 142.486 628.76 142.365 628.583C142.287 628.539 142.287 628.539 142.287 628.539C139.501 626.35 119.048 609.589 111.652 585.686C111.243 584.271 110.668 582.978 110.214 581.64C105.173 570.838 95.5766 565.521 85.969 560.612C83.7358 559.373 81.4583 558.213 79.225 556.974C74.9243 554.586 70.9221 552.043 67.4284 548.804C65.1952 546.593 63.2162 544.304 61.6131 541.353C60.5075 539.44 59.6893 537.793 59.1255 536.289C58.8602 535.603 58.6722 534.962 58.44 534.398C56.6932 528.782 58.6169 526.272 62.4201 525.465C73.675 522.735 101.127 534.067 102.641 523.553C104.156 512.817 86.0022 512.596 73.0558 507.466C67.4727 505.233 62.9066 502.16 61.2703 496.93C55.9635 479.595 77.9536 485.963 86.2012 457.649C94.4489 429.335 75.0791 411.026 84.9409 396.377C94.9243 381.695 102.155 437.295 105.438 423.763C108.777 410.142 118.031 420.369 121.049 433.835C124.2 447.267 120.574 462.779 132.945 440.656C141.414 425.786 148.556 428.13 154.217 440.148Z" fill="#FF6089"/>
<path d="M84.3994 545.189C85.2949 544.194 87.0417 543.309 90.3474 544.581C94.427 546.162 98.2745 548.285 101.79 550.883C102.829 551.645 103.836 552.453 104.842 553.26C107.174 555.128 109.386 556.897 111.906 558.124C116.483 560.346 122.619 560.877 127.849 559.628C128.567 556.842 129.275 553.989 129.662 551.17C131.033 541.054 128.357 529.567 121.934 517.947C119.679 513.868 117.08 509.932 114.35 506.107C111.597 506.759 108.567 507.367 105.483 506.792C101.226 505.996 97.987 503.188 94.8693 500.468C94.1396 499.838 93.4099 499.197 92.6692 498.6C89.5293 496.035 86.0246 493.967 82.2656 492.43C80.7731 491.822 78.8052 491.447 78.1307 492.353C77.6222 493.061 76.6161 493.227 75.9085 492.707C75.201 492.187 75.0351 491.192 75.5547 490.485C77.0583 488.406 79.9329 488.052 83.4597 489.49C87.5172 491.137 91.2872 493.381 94.6703 496.145C95.4331 496.764 96.196 497.428 96.9478 498.091C99.8886 500.634 102.653 503.044 106.069 503.685C108.07 504.061 110.226 503.763 112.282 503.332C110.248 500.579 108.18 497.87 106.124 495.194C104.543 493.149 102.962 491.093 101.403 489.036C99.0263 485.885 96.793 482.746 95.599 479.086C93.0782 471.336 95.6653 463.265 98.783 454.995C99.0926 454.177 100.01 453.757 100.839 454.067C101.658 454.376 102.078 455.294 101.768 456.123C98.8604 463.84 96.4282 471.336 98.6283 478.113C99.6675 481.308 101.646 484.083 103.946 487.124C105.494 489.18 107.064 491.214 108.645 493.249C112.227 497.892 115.864 502.668 119.236 507.632C122.089 505.067 123.515 502.613 123.813 499.473C124.046 496.997 123.747 494.509 123.426 491.867L123.216 490.053C122.863 486.847 122.675 483.11 123.869 479.672C124.908 476.72 126.898 474.067 129.972 471.535C130.823 470.838 131.884 470.241 133.001 469.6C134.538 468.738 136.273 467.743 136.881 466.715C137.335 465.963 138.308 465.72 139.07 466.162C139.822 466.615 140.065 467.588 139.623 468.351C138.584 470.098 136.55 471.248 134.582 472.375C133.587 472.95 132.636 473.481 132.006 474C129.397 476.145 127.727 478.345 126.887 480.722C125.892 483.553 126.058 486.715 126.389 489.7L126.599 491.48C126.931 494.166 127.263 496.952 126.997 499.761C126.522 504.736 123.88 507.909 121.094 510.319C122.376 512.309 123.592 514.332 124.742 516.4C131.497 528.627 134.294 540.789 132.824 551.59C132.382 554.841 131.564 558.047 130.756 561.153C130.734 561.341 130.712 561.507 130.624 561.673C129.397 566.438 128.269 570.971 128.49 575.637C128.567 577.162 128.822 578.688 129.131 580.203C131.331 578.312 133.896 576.985 136.406 575.736L137.998 574.94C144.842 571.446 153.974 565.222 158.706 555.427C159.347 554.111 159.9 552.74 160.452 551.369C161.879 547.842 163.36 544.194 166.179 541.375C166.832 540.744 167.816 540.756 168.435 541.375C169.054 541.994 169.065 543 168.435 543.63C166.069 546.007 164.775 549.202 163.404 552.574C162.818 554.011 162.232 555.438 161.569 556.82C157.788 564.647 151.497 570.319 145.527 574.244C143.415 575.637 141.348 576.809 139.446 577.781L137.832 578.6C134.936 580.037 132.205 581.397 130.171 583.564C130.126 583.619 130.06 583.641 130.005 583.685C130.502 585.41 131.055 587.124 131.619 588.804L137.335 605.819C138.628 609.666 139.955 613.658 141.923 617.229C146.71 625.963 155.411 632.287 165.195 634.166C166.058 634.332 166.622 635.161 166.456 636.035C166.367 636.477 166.113 636.831 165.77 637.063C165.439 637.284 165.018 637.383 164.598 637.295C153.896 635.25 144.388 628.318 139.137 618.765C137.036 614.94 135.665 610.816 134.328 606.836L128.612 589.821C127.108 585.333 125.549 580.7 125.328 575.791C125.118 571.447 125.98 567.223 126.997 563.11C121.436 564.072 115.345 563.32 110.535 560.988C107.683 559.606 105.24 557.638 102.874 555.747C101.901 554.962 100.928 554.188 99.9218 553.448C96.6382 551.015 93.034 549.036 89.2197 547.555C87.7714 546.991 87.0086 547.068 86.7875 547.323C86.2015 547.975 85.1954 548.03 84.5321 547.444C83.8687 546.858 83.8134 545.852 84.3994 545.189Z" fill="#FEFEFE"/>
<path d="M178.043 515.349C181.381 518.5 182.985 522.425 182.52 526.383C182.454 526.891 182.31 527.345 182.166 527.809C181.393 530.949 179.06 533.989 175.146 536.565C165.826 542.646 185.118 546.858 180.596 559.495C180.497 559.871 180.309 560.203 180.254 560.501C176.439 570.495 171.896 573.812 171.962 579.152C171.884 579.871 172.028 580.589 172.249 581.363C172.238 581.573 172.316 581.828 172.382 582.093C173.344 585.432 176.064 588.141 178.153 593.514C179.745 597.859 180.884 603.796 179.977 613.237C179.568 618.854 178.463 625.708 176.329 634.033C176.804 635.703 175.013 637.195 172.681 638.069C171.818 638.456 170.834 638.666 169.894 638.798C169.64 638.876 169.507 638.909 169.342 638.82C169.087 638.898 168.877 638.887 168.667 638.876C167.097 638.975 165.671 638.621 165.041 637.615C164.964 637.571 164.919 637.438 164.886 637.317C164.809 637.273 164.765 637.14 164.731 637.018C163.305 635.692 161.879 634.354 160.541 633.071C158.021 630.595 155.666 628.207 153.532 625.83C142.885 614.409 137.081 604.592 140.265 597.483C140.453 596.941 140.729 596.444 140.961 596.034C141.415 595.415 141.857 594.807 142.399 594.232C147.716 588.749 147.849 583.63 145.936 577.914C145.638 576.886 145.262 575.813 144.809 574.686C144.389 573.691 143.957 572.707 143.537 571.712C142.609 569.677 141.558 567.477 140.552 565.189C135.632 553.591 147.042 549.213 153.93 543.409C154.107 543.287 154.328 543.088 154.505 542.967C158.728 539.252 154.814 532.861 153.488 527.256L153.41 527.212C152.625 523.751 152.681 520.534 156.495 518.533C166.113 513.259 171.575 509.268 178.043 515.349Z" fill="#A893C9"/>
<path d="M171.719 639.926C171.033 640.103 170.293 639.76 170.005 639.096C168.822 636.355 141.282 571.38 165.981 528.461C166.379 527.764 167.274 527.521 167.971 527.919C168.667 528.317 168.911 529.213 168.513 529.909C144.544 571.556 172.404 637.272 172.692 637.925C173.012 638.665 172.67 639.528 171.929 639.848C171.851 639.881 171.785 639.915 171.719 639.926Z" fill="white"/>
<path opacity="0.7" d="M182.531 526.372C182.465 526.88 182.321 527.334 182.177 527.798C181.403 530.938 179.071 533.978 175.157 536.554C165.837 542.635 185.129 546.847 180.607 559.484C180.508 559.86 180.32 560.192 180.265 560.49C176.45 570.485 171.907 573.801 171.973 579.141C171.895 579.86 172.039 580.579 172.26 581.352C172.249 581.562 172.327 581.817 172.393 582.082C173.355 585.421 176.075 588.13 178.164 593.503C179.756 597.848 180.895 603.785 179.988 613.226C179.579 618.843 178.474 625.697 176.34 634.022C176.815 635.692 175.024 637.184 172.691 638.058C171.829 638.445 170.845 638.655 169.905 638.787C169.651 638.865 169.518 638.898 169.353 638.81C169.098 638.887 168.888 638.876 168.678 638.865C167.108 638.964 165.682 638.611 165.052 637.604C164.975 637.56 164.93 637.428 164.897 637.306C164.82 637.262 164.775 637.129 164.742 637.007C163.316 635.681 161.89 634.343 160.552 633.061C158.031 630.584 155.677 628.196 153.543 625.819C142.896 614.398 137.092 604.581 140.276 597.472C140.464 596.93 140.74 596.433 140.972 596.024C141.426 595.404 141.868 594.796 142.41 594.221C147.727 588.738 147.86 583.619 145.947 577.903C147.716 577.052 149.408 576.145 151.232 575.205C151.962 574.852 152.614 574.465 153.266 574.067C153.698 573.879 154.173 573.602 154.648 573.326C155.002 573.083 155.433 572.895 155.776 572.651C156.871 571.855 157.921 571.137 158.839 570.241C160.596 568.627 162 566.692 162.863 564.36C164.167 560.645 163.57 556.643 163.327 552.607C163.327 552.607 163.327 552.607 163.371 552.53C163.239 551.59 163.195 550.706 163.15 549.81C163.128 549.257 163.195 548.749 163.172 548.207C163.217 547.146 163.261 546.095 163.515 545.045C164.621 538.953 168.125 533.425 173.178 529.965C175.323 528.45 177.479 527.477 179.822 526.947C180.74 526.681 181.591 526.504 182.531 526.372Z" fill="url(#paint1_linear)"/>
<path d="M682.497 94.5644V123.066C682.497 126.582 679.611 129.468 676.018 129.468H613.11C612.967 129.468 612.834 129.468 612.69 129.401C609.384 129.258 606.709 126.449 606.709 123.066V94.5644C606.709 90.9713 609.595 88.1631 613.11 88.1631H676.018C679.467 88.1631 682.276 90.7612 682.419 94.1443C682.497 94.277 682.497 94.4207 682.497 94.5644Z" fill="#FF4777"/>
<path opacity="0.7" d="M682.42 94.1333C682.21 94.0669 682.066 94.0669 681.922 94.0669C677.555 93.6468 672.989 94.6971 669.396 97.3726C664.465 101.098 661.867 107.997 663.691 113.912C665.305 119.263 669.949 123.276 671.22 128.694C671.286 128.97 671.364 129.258 671.364 129.468H613.1C612.956 129.468 612.823 129.468 612.679 129.401C612.823 129.258 612.889 129.048 613.033 128.904C614.725 126.582 616.903 124.47 618.097 121.872C619.711 118.279 619.368 114.067 617.677 110.54C615.985 107.024 613.033 104.139 609.794 102.027C608.81 101.397 607.749 100.756 606.698 100.126V94.5645C606.698 90.9713 609.584 88.1631 613.1 88.1631H676.007C679.468 88.1521 682.287 90.7612 682.42 94.1333Z" fill="url(#paint2_linear)"/>
<path d="M621.037 109.49L636.88 101.795V104.802L624.31 110.651V110.717L636.88 116.599V119.573L621.037 111.878V109.49Z" fill="white"/>
<path d="M639.202 120.933L647.361 96.6982H650.236L642.077 120.933H639.202Z" fill="white"/>
<path d="M668.091 111.966L652.248 119.584V116.61L665.018 110.728V110.662L652.248 104.78V101.806L668.091 109.424V111.966Z" fill="white"/>
<path d="M470.426 182.458V622.845C470.426 633.492 460.785 645.521 450.061 650.076C447.131 651.391 444.201 652.077 441.271 652.077L183.162 647.522C169.508 647.522 158.552 636.333 158.552 622.834L154.384 451.668L148.06 188.937L147.982 186.549C147.982 179.142 154.306 171.358 162.333 165.72C168.966 161.01 176.916 157.848 183.162 157.848H445.815C454.992 157.848 462.941 162.713 467.031 170.032C469.187 173.658 470.426 177.981 470.426 182.458Z" fill="#FF4777"/>
<path d="M459.933 189.944V630.408C459.933 638.357 456.074 645.532 450.06 650.076C445.969 653.161 440.883 655.018 435.322 655.018H172.592C158.938 655.018 147.981 643.829 147.981 630.408V189.944C147.981 189.634 147.981 189.247 148.059 188.937C148.368 178.987 154.615 170.651 163.327 167.18C166.179 165.941 169.341 165.333 172.581 165.333H435.311C444.488 165.333 452.359 170.198 456.527 177.594C458.694 181.143 459.933 185.466 459.933 189.944Z" fill="#7035BB"/>
<path d="M446.179 628.451H161.79C159.988 628.451 158.528 626.991 158.528 625.189V195.14C158.528 193.338 159.988 191.878 161.79 191.878H446.179C447.981 191.878 449.44 193.338 449.44 195.14V625.189C449.44 626.991 447.981 628.451 446.179 628.451Z" fill="white"/>
<path d="M302.696 385.344H184.465C183.758 385.344 183.183 384.769 183.183 384.062V371.237C183.183 370.53 183.758 369.955 184.465 369.955H302.696C303.404 369.955 303.979 370.53 303.979 371.237V384.062C303.979 384.769 303.404 385.344 302.696 385.344Z" fill="#BC9AFC"/>
<path d="M302.818 445.687H189.208C187.218 445.687 185.615 444.073 185.615 442.094V406.273C185.615 404.283 187.229 402.68 189.208 402.68H302.818C304.808 402.68 306.411 404.294 306.411 406.273V442.094C306.411 444.084 304.808 445.687 302.818 445.687Z" fill="#BC9AFC"/>
<path d="M423.504 478.423H362.067C361.359 478.423 360.784 477.848 360.784 477.141V464.316C360.784 463.608 361.359 463.033 362.067 463.033H423.504C424.211 463.033 424.786 463.608 424.786 464.316V477.141C424.786 477.837 424.211 478.423 423.504 478.423Z" fill="#BC9AFC"/>
<path d="M422.31 522.038H363.25C361.879 522.038 360.773 520.933 360.773 519.562V494.907C360.773 493.536 361.879 492.431 363.25 492.431H422.31C423.681 492.431 424.787 493.536 424.787 494.907V519.562C424.787 520.933 423.681 522.038 422.31 522.038Z" fill="#BC9AFC"/>
<path d="M424.775 233.868V332.796C424.775 341.054 418.053 347.776 409.706 347.776H198.23C189.883 347.776 183.161 341.054 183.161 332.796V233.868C183.161 225.521 189.883 218.799 198.23 218.799H409.706C418.064 218.799 424.775 225.51 424.775 233.868Z" fill="#F3EFFE"/>
<path d="M424.775 295.77V332.796C424.775 341.055 418.053 347.777 409.706 347.777H198.23C189.883 347.777 183.161 341.055 183.161 332.796V292.862C212.382 278.799 248.324 266.45 268.567 277.705C306.511 298.855 331.199 303.94 360.784 286.417C379.944 275.162 405.262 280.612 424.775 295.77Z" fill="#FF4777"/>
<path d="M378.695 265.642C389.35 265.642 397.987 257.005 397.987 246.35C397.987 235.695 389.35 227.058 378.695 227.058C368.04 227.058 359.402 235.695 359.402 246.35C359.402 257.005 368.04 265.642 378.695 265.642Z" fill="#FF4777"/>
<path d="M342 478.025V576.952C342 585.3 335.289 592.021 326.931 592.021H198.23C189.883 592.021 183.161 585.3 183.161 576.952V478.025C183.161 469.766 189.883 463.044 198.23 463.044H326.931C335.289 463.044 342 469.755 342 478.025Z" fill="#F3EFFE"/>
<path d="M342 533.657V576.952C342 585.299 335.289 592.021 326.931 592.021H198.23C189.883 592.021 183.161 585.299 183.161 576.952V539.373C232.36 503.342 237.711 508.693 262.575 533.569C288.269 559.252 298.894 501.982 342 533.657Z" fill="#FF4777"/>
<path d="M306.412 508.251C316.12 508.251 323.991 500.381 323.991 490.672C323.991 480.964 316.12 473.094 306.412 473.094C296.703 473.094 288.833 480.964 288.833 490.672C288.833 500.381 296.703 508.251 306.412 508.251Z" fill="#FF4777"/>
<path d="M527.24 500.125C521.391 500.125 515.819 498.312 511.109 494.896L514.515 490.208C518.229 492.917 522.63 494.332 527.24 494.332V500.125ZM501.104 481.22C500.197 478.456 499.733 475.559 499.733 472.607V465.012H505.515V472.607C505.515 474.94 505.88 477.229 506.599 479.407L501.104 481.22ZM505.515 449.589H499.733V434.166H505.515V449.589ZM505.515 418.732H499.733V403.309H505.515V418.732ZM505.515 387.876H499.733V372.453H505.515V387.876ZM505.515 357.019H499.733V341.596H505.515V357.019ZM505.515 326.162H499.733V310.739H505.515V326.162ZM505.515 295.305H499.733V279.882H505.515V295.305ZM505.515 264.448H499.733V249.025H505.515V264.448ZM505.515 233.603H499.733V218.18H505.515V233.603ZM505.515 202.746H499.733V187.323H505.515V202.746ZM505.515 171.889H499.733V156.466H505.515V171.889ZM366.046 157.859H360.264V146.892H366.046V157.859ZM505.515 141.032H499.733V135.206C499.733 132.342 499.191 129.567 498.108 126.947L503.459 124.747C504.83 128.064 505.515 131.59 505.515 135.206V141.032ZM366.289 131.911L360.573 131.049C361.447 125.3 364.067 120.059 368.18 115.891L372.303 119.949C369.053 123.243 366.975 127.378 366.289 131.911ZM489.451 116.72C486.024 114.598 482.066 113.47 478.008 113.47H476.25V107.688H478.008C483.149 107.688 488.157 109.114 492.502 111.812L489.451 116.72ZM384.166 113.768L383.205 108.064C384.697 107.82 386.212 107.688 387.771 107.688H399.103V113.47H387.771C386.543 113.47 385.338 113.569 384.166 113.768ZM460.816 113.47H445.394V107.688H460.816V113.47ZM429.96 113.47H414.537V107.688H429.96V113.47Z" fill="#F3EFFE"/>
<path d="M799.402 575.415H738.783C735.809 571.446 733.166 568.063 730.933 564.846C722.431 552.784 718.385 543.784 718.219 521.651H778.76C773.387 536.598 785.283 555.758 799.402 575.415Z" fill="#7035BB"/>
<path opacity="0.1" d="M799.401 575.415H738.782C735.808 571.446 733.166 568.063 730.933 564.846C731.01 564.846 731.098 564.923 731.176 564.923C736.217 566.659 741.248 568.638 746.621 568.892C750.501 569.135 754.47 568.317 758.263 567.322C762.309 566.327 767.096 564.182 767.185 559.97C767.262 557.903 766.024 555.924 764.951 554.111C762.884 550.396 761.646 546.261 761.148 542.049C760.407 535.194 761.812 527.765 765.195 521.651H778.738C773.387 536.598 785.283 555.758 799.401 575.415Z" fill="black"/>
<path d="M933.662 295.847V512.475C933.662 518.622 928.632 523.641 922.496 523.641H581.136C574.989 523.641 569.97 518.611 569.97 512.475V295.847C569.97 289.644 575 284.68 581.136 284.68H922.496C928.643 284.68 933.662 289.644 933.662 295.847Z" fill="#7035BB"/>
<path d="M933.663 307.079V484.802C933.663 485.609 933.542 486.416 933.354 487.156C932.304 491.689 928.268 494.973 923.492 494.973H580.142C574.493 494.973 569.96 490.44 569.96 484.791V307.079C569.96 301.496 574.493 296.963 580.142 296.963H923.492C929.075 296.963 933.663 301.496 933.663 307.079Z" fill="white"/>
<path d="M840.032 591.346V593.746H660.905V591.346C660.905 589.865 661.071 588.461 661.314 587.057C663.293 577.803 671.552 570.871 681.381 570.871H819.468C821.613 570.871 823.592 571.203 825.582 571.778C833.929 574.42 840.032 582.181 840.032 591.346Z" fill="#7035BB"/>
<path opacity="0.1" d="M828.965 593.746H660.905V591.346C660.905 589.865 661.071 588.461 661.314 587.057C664.288 586.15 667.428 585.575 670.48 585.078C707.97 579.218 746.289 589.367 784.122 586.239C788.832 585.907 793.619 585.244 797.909 583.265C799.147 582.69 800.386 582.026 801.215 580.866C802.542 578.964 802.287 576.244 801.215 574.177C800.551 572.85 799.567 571.866 798.484 570.871H819.457C821.602 570.871 823.581 571.203 825.571 571.778C826.732 572.939 827.638 574.254 828.379 575.747C831.032 581.275 830.457 587.798 828.965 593.746Z" fill="black"/>
<path d="M877.002 598.334L849.042 635.969C848.235 637.052 846.753 638.036 844.863 638.832C841.944 640.092 837.986 640.899 834.26 640.899H501.645C496.493 640.899 493.276 632.475 493.63 628.185C493.685 627.378 493.862 626.748 494.205 626.295L511.452 608.992L522.11 598.334C524.177 595.582 530.755 593.404 536.891 593.404L553.564 592.95C553.619 592.895 553.674 592.895 553.741 592.95L568.81 592.497L664.774 589.744L735.122 587.743L871.297 583.785H871.474L874.172 583.73C880.274 583.73 879.014 595.593 877.002 598.334Z" fill="#7035BB"/>
<path d="M877.002 588.66L849.042 626.295C847.041 629.047 840.396 631.225 834.26 631.225H501.646C497.002 631.225 493.907 630.02 493.63 628.185C493.52 627.61 493.686 626.98 494.205 626.295L508.467 607.102L522.099 588.649C524.166 585.897 530.745 583.719 536.881 583.719H869.506C870.136 583.719 870.711 583.718 871.286 583.774H871.463C876.372 584.249 878.782 586.195 877.002 588.66Z" fill="white"/>
<path d="M729.594 624.427H616.394C611.861 624.427 609.384 622.801 610.877 620.789C612.37 618.777 617.256 617.152 621.8 617.152H734.99C739.523 617.152 741.999 618.777 740.507 620.789C739.014 622.801 734.127 624.427 729.594 624.427Z" fill="#FF4777"/>
<path d="M786.831 612.099H577.467C572.934 612.099 570.458 610.474 571.95 608.462C573.443 606.45 578.329 604.825 582.873 604.825H792.238C796.77 604.825 799.247 606.45 797.754 608.462C796.262 610.463 791.375 612.099 786.831 612.099Z" fill="#FF4777"/>
<path d="M550.369 612.099H540.341C535.808 612.099 533.332 610.474 534.824 608.462C536.317 606.45 541.203 604.825 545.747 604.825H555.775C560.308 604.825 562.784 606.45 561.292 608.462C559.788 610.463 554.902 612.099 550.369 612.099Z" fill="#FF4777"/>
<path d="M813.94 612.099H823.968C828.5 612.099 833.398 610.474 834.891 608.462C836.383 606.45 833.918 604.825 829.374 604.825H819.346C814.813 604.825 809.915 606.45 808.423 608.462C806.93 610.463 809.396 612.099 813.94 612.099Z" fill="#FF4777"/>
<path d="M830.225 599.761H552.381C547.848 599.761 545.372 598.136 546.864 596.123C548.357 594.111 553.244 592.486 557.787 592.486H835.631C840.164 592.486 842.641 594.111 841.148 596.123C839.656 598.136 834.769 599.761 830.225 599.761Z" fill="#FF4777"/>
<path d="M965.405 277.306V464.437C965.405 473.569 958.02 481.087 948.888 481.087H693.288C684.156 481.087 676.771 473.58 676.771 464.437V277.306C676.771 268.163 684.156 260.789 693.288 260.789H948.888C957.279 260.789 964.156 266.925 965.162 274.929C965.405 275.681 965.405 276.554 965.405 277.306Z" fill="#7035BB"/>
<path d="M965.405 277.306V294.951H676.76V277.306C676.76 268.163 684.145 260.789 693.277 260.789H948.877C957.268 260.789 964.145 266.925 965.151 274.929C965.405 275.681 965.405 276.554 965.405 277.306Z" fill="#FF4777"/>
<path opacity="0.7" d="M965.405 454.177V464.437C965.405 473.569 958.02 481.087 948.888 481.087H693.288C684.156 481.087 676.771 473.58 676.771 464.437V435.272C681.779 432.143 687.661 430.02 693.421 428.76C725.085 421.872 759.391 432.265 790.049 421.375C809.573 414.487 826.345 397.969 829.982 377.56C833.741 357.162 821.967 334 802.066 328.119C792.183 325.111 781.669 326.361 771.519 325.62C748.612 324.116 727.462 313.348 707.805 301.585C704.3 299.451 700.674 297.207 697.29 294.951C689.651 289.943 682.52 284.315 676.76 277.549V277.295C676.76 268.152 684.145 260.778 693.277 260.778H948.877C957.268 260.778 964.145 266.914 965.151 274.918C961.901 276.167 958.639 277.549 955.389 279.429C948.003 283.564 941.248 288.815 935.234 294.951C925.35 305.089 917.832 317.605 914.084 331.38C911.829 339.263 910.834 347.522 912.205 355.537C914.084 367.057 920.342 377.195 926.599 386.958C933.73 398.224 940.994 409.611 948.125 420.999C954.891 431.513 961.657 442.281 965.405 454.177Z" fill="url(#paint3_linear)"/>
<path d="M826.589 458.876H700.486C699.845 458.876 699.336 458.356 699.336 457.726V324.57C699.336 323.928 699.856 323.42 700.486 323.42H826.589C827.23 323.42 827.738 323.94 827.738 324.57V457.715C827.749 458.356 827.23 458.876 826.589 458.876Z" fill="white"/>
<path d="M904.952 344.205H847.262C846.853 344.205 846.521 343.873 846.521 343.464V336.034C846.521 335.625 846.853 335.294 847.262 335.294H904.952C905.361 335.294 905.692 335.625 905.692 336.034V343.464C905.703 343.873 905.361 344.205 904.952 344.205Z" fill="#BC9AFC"/>
<path d="M903.957 377.737H848.257C847.295 377.737 846.521 376.963 846.521 376.002V358.688C846.521 357.726 847.295 356.952 848.257 356.952H903.957C904.918 356.952 905.692 357.726 905.692 358.688V376.002C905.703 376.952 904.918 377.737 903.957 377.737Z" fill="#BC9AFC"/>
<path d="M941.591 458.876H847.671C847.03 458.876 846.521 458.356 846.521 457.726V392.309C846.521 391.667 847.041 391.159 847.671 391.159H941.591C942.232 391.159 942.74 391.679 942.74 392.309V457.726C942.751 458.356 942.232 458.876 941.591 458.876Z" fill="white"/>
<path d="M703.36 282.513C705.955 282.513 708.059 280.41 708.059 277.815C708.059 275.22 705.955 273.116 703.36 273.116C700.765 273.116 698.661 275.22 698.661 277.815C698.661 280.41 700.765 282.513 703.36 282.513Z" fill="white"/>
<path d="M718.949 282.513C721.544 282.513 723.647 280.41 723.647 277.815C723.647 275.22 721.544 273.116 718.949 273.116C716.354 273.116 714.25 275.22 714.25 277.815C714.25 280.41 716.354 282.513 718.949 282.513Z" fill="white"/>
<path d="M734.538 282.513C737.133 282.513 739.236 280.41 739.236 277.815C739.236 275.22 737.133 273.116 734.538 273.116C731.943 273.116 729.839 275.22 729.839 277.815C729.839 280.41 731.943 282.513 734.538 282.513Z" fill="white"/>
<path d="M945.063 390.241C944.554 389.533 943.582 389.39 942.874 389.865L895.146 423.453L847.418 389.865C846.688 389.39 845.726 389.533 845.229 390.241C844.742 390.949 844.908 391.933 845.605 392.43L892.415 425.376L846.644 457.582C845.948 458.08 845.782 459.064 846.268 459.771C846.578 460.202 847.064 460.434 847.551 460.434C847.871 460.434 848.17 460.335 848.457 460.158L895.146 427.3L941.835 460.158C942.111 460.346 942.421 460.434 942.741 460.434C943.228 460.434 943.714 460.202 944.024 459.771C944.51 459.064 944.344 458.08 943.648 457.582L897.877 425.376L944.687 392.43C945.384 391.933 945.55 390.949 945.063 390.241Z" fill="#FF4777"/>
<path d="M828.877 457.793L765.04 390.463L827.583 324.492C828.18 323.873 828.147 322.878 827.528 322.281C826.909 321.706 825.914 321.717 825.317 322.348L762.896 388.196L700.474 322.348C699.877 321.728 698.893 321.717 698.263 322.281C697.644 322.878 697.6 323.873 698.197 324.492L760.74 390.463L696.903 457.793C696.306 458.412 696.34 459.407 696.97 460.004C697.279 460.28 697.655 460.435 698.042 460.435C698.462 460.435 698.871 460.28 699.181 459.948L762.896 392.74L826.61 459.948C826.92 460.28 827.329 460.435 827.749 460.435C828.136 460.435 828.523 460.291 828.821 460.004C829.441 459.407 829.474 458.412 828.877 457.793Z" fill="#FF4777"/>
<path d="M601.579 399.606C600.495 405.211 581.048 413.216 565.028 422.657C561.888 419.617 557.687 414.421 556.084 410.971L576.316 396.986C576.316 396.986 595.752 352.398 601.369 354.907C612.436 356.588 603.458 386.759 601.579 399.606Z" fill="#36164D"/>
<path d="M605.714 445.234C575.41 446.649 549.097 451.204 541.004 466.107C537.09 475.35 564.63 604.99 564.63 604.99L574.89 602.47L571.23 494.907C588.809 492.851 617.123 488.871 622.253 468.517L605.714 445.234Z" fill="#FFCADA"/>
<path d="M574.215 600.856C577.908 602.249 578.372 606.682 578.947 611.48C572.811 616.865 549.274 620.104 546.62 616.699C553.154 610.485 559.965 603.62 564.608 601.972C567.836 603.001 571.031 602.437 574.215 600.856Z" fill="#7035BB"/>
<path d="M636.339 440.878C608.334 453.791 585.062 468.119 582.099 485.189C581.303 495.361 647.505 606.527 647.505 606.527L656.35 600.236L619.434 500.668C635.3 492.022 660.905 483.52 659.103 456.4L636.339 440.878Z" fill="#FFCADA"/>
<path d="M655.223 598.987C659.125 598.888 660.938 602.879 662.973 607.146C658.893 614.554 637.799 626.582 634.261 624.393C638.462 616.057 642.707 607.025 646.566 603.697C649.894 603.432 652.724 601.685 655.223 598.987Z" fill="#7035BB"/>
<path d="M601.358 354.896C586.156 399.606 604.089 415.228 586.156 446.494C609.174 456.754 633.055 462.06 658.771 456.765C653.928 433.337 667.461 411.17 670.125 354.896C647.826 347.301 624.94 348.749 601.358 354.896Z" fill="#7035BB"/>
<path d="M592.414 449.302C591.783 449.932 590.921 450.253 589.97 450.253H529.915C529.838 450.253 529.838 450.253 529.76 450.253C528.179 450.253 526.841 449.391 526.211 447.964L516.681 424.791L511.949 413.205C510.921 410.684 512.734 407.92 515.421 407.92H575.631C577.212 407.92 578.549 408.871 579.102 410.286L593.442 445.046C594.072 446.627 593.596 448.362 592.414 449.302Z" fill="#7035BB"/>
<path d="M619.844 453.006C619.844 454.498 618.66 455.681 617.168 455.681H529.926C528.434 455.681 527.251 454.498 527.251 453.006C527.251 451.591 528.357 450.33 529.772 450.242C529.849 450.242 529.849 450.242 529.926 450.242H617.168C618.66 450.253 619.844 451.513 619.844 453.006Z" fill="#7035BB"/>
<path d="M556.305 433.147C557.874 431.011 556.868 427.606 554.059 425.542C551.249 423.478 547.699 423.536 546.13 425.671C544.561 427.807 545.567 431.212 548.377 433.276C551.186 435.34 554.736 435.283 556.305 433.147Z" fill="white"/>
<path opacity="0.7" d="M600.142 455.682H547.417C547.184 454.819 546.786 453.868 546.388 453.083C545.913 452.133 545.36 451.193 544.807 450.242C538.583 439.684 529.285 431.016 518.329 425.577C517.776 425.344 517.223 425.024 516.67 424.792L511.938 413.205C510.91 410.684 512.723 407.92 515.41 407.92H562.541C560.805 411.547 560.098 415.726 560.728 419.739C561.513 424.626 564.033 429.114 566.72 433.371C568.301 435.814 569.948 438.258 572.237 440.148C574.448 441.884 577.046 442.99 579.644 444.007C583.901 445.588 588.39 447.08 592.414 449.291C592.967 449.523 593.519 449.844 593.995 450.242C594.393 450.474 594.78 450.717 595.178 450.95C596.991 452.298 598.727 453.879 600.142 455.682Z" fill="url(#paint4_linear)"/>
<path d="M626.588 350.629C633.741 346.007 628.943 342.038 627.539 334.377L645.593 335.936C641.812 341.552 644.664 344.581 647.649 350.065C644.377 355.692 631.132 356.754 626.588 350.629Z" fill="#F4BC84"/>
<path d="M611.916 309.048C610.092 318.578 617.013 342.79 622.087 344.581C629.351 346.914 639.898 343.254 647.051 337.892L643.27 308.948L611.916 309.048Z" fill="#F4BC84"/>
<path d="M611.618 328.152C611.618 328.152 623.16 323.089 628.146 319.075C628.146 319.075 631.342 324.88 628.699 328.683C626.057 332.486 630.7 330.684 632.867 325.676C635.034 320.667 635.974 318.523 638.838 321.088C641.701 323.652 638.008 327.997 636.516 328.362C635.023 328.727 632.702 339.518 643.404 341.839C654.106 344.161 656.781 333.127 653.94 329.954C651.098 326.781 647.682 325.731 650.28 322.149C652.878 318.556 652.878 312.442 649.506 310.75C646.134 309.059 646.444 307.157 646.765 304.736C647.085 302.304 633.995 294.708 631.043 296.499C628.091 298.29 624.399 303.995 622.287 301.884C620.175 299.772 613.84 299.352 614.692 301.673C615.532 303.995 614.802 306.427 611.098 306.317C607.395 306.206 602.862 306.427 604.664 308.959C606.455 311.491 606.986 315.825 605.615 317.715C604.244 319.606 605.493 327.511 611.618 328.152Z" fill="#091038"/>
<path d="M670.136 354.896C680.915 357.947 691.352 397.793 687.98 410.308C684.94 419.838 644.597 434.819 615.719 446.892L611.916 439.882L670.136 407.975C664.686 395.261 658.008 380.745 657.09 374.598C655.012 365.908 664.796 351.789 670.136 354.896Z" fill="#F4BC84"/>
<path d="M687.992 410.33C686.256 415.769 672.226 423.995 655.211 431.48C652.447 428.085 648.887 422.436 647.704 418.81L669.451 407.312C664.011 394.619 658.052 380.778 657.102 374.553C655.056 365.885 664.83 351.778 670.103 354.929C680.894 357.925 691.375 397.803 687.992 410.33Z" fill="#36164D"/>
<path d="M611.916 439.871L605.448 438.92L597.698 450.286H601.015L605.846 447.234L615.719 446.88L611.916 439.871Z" fill="#F4BC84"/>
<path d="M864.111 630.806L861.646 630.573C861.701 629.965 866.742 569.413 831.209 527.809L833.099 526.195C869.318 568.605 864.177 630.186 864.111 630.806Z" fill="#F3EFFE"/>
<path d="M860.651 545.133C852.845 556.676 840.297 538.456 840.297 538.456C840.297 538.456 839.048 558.29 826.743 556.554C817.411 555.227 824.775 543.763 828.876 538.29C830.203 536.521 831.209 535.349 831.209 535.349C801.159 534.586 825.659 508.24 837.887 526.737C837.887 526.737 841.989 508.439 850.723 512.298C850.966 512.419 851.165 512.541 851.408 512.663C860.573 517.848 846.743 530.485 846.743 530.485C857.754 524.061 868.445 533.547 860.651 545.133Z" fill="#FF4F8E"/>
<path d="M974.536 566.427C931.208 578.577 912.557 629.589 912.557 629.589C920.783 620.733 943.735 617.394 950.025 625.797C956.349 634.155 945.426 660.855 900.031 665.2C892.69 665.918 886.576 663.718 881.546 659.672C880.285 658.699 879.135 657.604 878.041 656.422C869.351 647.057 864.586 631.778 862.894 617.903C861.844 609.423 861.922 601.452 862.939 595.626C866.819 573.514 868.422 567.732 873.154 564.315C880.584 558.92 885.437 582.414 886.786 589.965C885.437 581.231 881.347 549.921 891.131 543.508C902.519 536.035 903.447 557.306 903.447 557.306C903.447 557.306 945.769 526.969 978.804 526.206C980.451 526.162 982.01 526.206 983.491 526.328C1012.35 528.284 1015.76 554.907 974.536 566.427Z" fill="#FFB6CD"/>
<path d="M983.525 545.841C981.082 546.427 978.672 547.068 976.306 547.786C964.454 551.335 953.144 556.521 942.552 562.723C941.292 563.486 940.02 564.237 938.76 565.045C927.406 572.054 916.947 580.445 907.958 590.23C902.342 596.222 897.577 602.977 893.575 610.097C901.59 611.954 913.575 608.284 913.696 608.24C914.205 608.074 914.625 608.361 914.879 608.87C915.045 609.334 914.758 609.887 914.293 610.053C913.741 610.219 901.17 614.099 892.646 611.866C889.904 617.018 887.494 622.292 885.769 627.853C884.885 630.639 884.255 633.469 883.658 636.288C900.872 652.618 929.484 637.217 929.772 637.051C930.236 636.797 930.822 636.963 931.076 637.427C931.33 637.98 931.12 638.444 930.7 638.687C930.402 638.853 901.413 654.464 883.149 638.345C881.845 645.354 881.336 652.518 881.546 659.649C881.635 663.486 881.922 667.333 882.386 671.125V671.247C882.475 672.264 881.756 673.193 880.695 673.314C879.678 673.403 878.749 672.684 878.627 671.623C878.119 666.559 877.864 661.451 878.041 656.388C878.296 646.349 879.855 636.432 883.105 626.935C883.359 626.128 883.735 625.376 884.034 624.569C883.481 623.519 882.309 621.197 880.872 618.024C880.031 616.167 879.103 614.011 878.174 611.656C874.758 602.8 871.596 591.567 873.873 583.972C873.995 583.508 874.548 583.209 875.056 583.342C875.521 583.508 875.819 584.061 875.686 584.525C873.033 593.381 878.594 608.24 882.519 617.051C883.492 619.207 884.376 620.976 885.007 622.236C888.555 613.248 893.365 604.768 899.357 597.173C898.893 596.244 898.428 595.315 898.052 594.342C897.29 592.397 896.704 590.373 896.195 588.306C893.11 575.437 894.714 561.263 894.846 560.545C894.89 559.992 895.355 559.66 895.897 559.705C896.405 559.793 896.737 560.257 896.704 560.755C896.704 560.921 895.266 573.834 897.677 585.984C898.351 589.356 899.28 592.695 900.673 595.647C902.574 593.325 904.509 591.004 906.576 588.859C915.189 579.915 925.018 572.231 935.521 565.741C937.676 564.392 939.866 563.088 942.066 561.86C952.956 555.78 964.509 550.849 976.493 547.554C978.804 546.935 981.159 546.349 983.525 545.841Z" fill="white"/>
<path opacity="0.7" d="M974.536 566.427C931.208 578.577 912.557 629.589 912.557 629.589C920.783 620.733 943.735 617.394 950.025 625.796C956.349 634.155 945.426 660.854 900.031 665.199C892.69 665.918 886.576 663.718 881.546 659.672C881.634 663.508 881.922 667.355 882.386 671.147V671.269C882.474 672.286 881.756 673.215 880.694 673.337C879.677 673.425 878.749 672.706 878.627 671.645C878.118 666.581 877.864 661.474 878.041 656.41C869.351 647.046 864.586 631.767 862.895 617.892C868.754 620.081 875.465 620.722 880.871 618.057C881.457 617.803 882.01 617.471 882.519 617.084C882.817 616.919 883.105 616.709 883.403 616.498C891.087 610.55 891.087 599.196 895.133 590.429C895.476 589.71 895.808 589.036 896.184 588.361C896.648 587.554 897.112 586.803 897.665 586.04C903.149 578.068 912.259 572.839 921.546 569.622C926.145 568.063 930.833 566.88 935.509 565.785C936.604 565.531 937.698 565.277 938.76 565.023C944.199 563.762 949.65 562.491 954.923 560.678C962.894 558.024 970.744 553.845 976.316 547.764C976.405 547.72 976.438 547.643 976.482 547.599C978.505 545.365 980.241 542.911 981.59 540.169C983.359 536.499 984.243 532.275 983.823 528.229C983.779 527.599 983.657 526.957 983.48 526.327C1012.35 528.284 1015.76 554.906 974.536 566.427Z" fill="url(#paint5_linear)"/>
<path d="M972.811 587.633C968.024 588.882 963.524 590.529 959.257 592.497C957.123 593.459 955.111 594.509 953.143 595.593C926.554 610.397 911.595 635.98 911.396 636.301L909.826 635.372C909.992 635.051 924.873 609.667 951.297 594.543C951.938 594.145 952.623 593.78 953.309 593.415C955.321 592.332 957.41 591.281 959.544 590.364C959.588 590.364 959.588 590.319 959.588 590.319C959.633 590.319 959.633 590.275 959.666 590.319C963.69 588.506 967.914 586.98 972.38 585.853L972.811 587.633Z" fill="#F3EFFE"/>
<path d="M966.696 590.087C966.696 590.087 974.181 607.301 965.204 605.853C958.482 604.769 958.725 596.521 959.256 592.497C959.422 591.336 959.576 590.529 959.654 590.33C959.654 590.286 959.654 590.286 959.654 590.286C959.654 590.286 959.61 590.286 959.576 590.33C959.576 590.33 959.576 590.374 959.532 590.374C959.013 590.772 956.271 592.785 953.219 593.956C952.578 594.2 951.937 594.399 951.284 594.565C948.233 595.283 945.248 594.686 944.01 590.54C941.036 580.811 950.522 576.466 956.846 583.299C956.359 582.414 950.289 571.436 957.487 569.866C965.049 568.218 963.877 582.657 963.877 582.657C967.415 579.761 970.875 579.562 973.529 580.645C980.295 583.365 981.898 594.355 966.696 590.087Z" fill="#FF4F8E"/>
<path d="M884.056 630.286C885.67 640.07 884.807 654.62 878.738 663.199C878.185 664.028 877.544 664.802 876.88 665.499C874.161 668.329 870.656 670.109 866.189 670.297C838.494 671.303 829.782 656.123 832.889 650.562C836.018 645.068 850.004 645.156 855.719 649.755C854.813 648.03 839.589 620.502 813.387 616.82C789.904 613.481 787.759 599.65 800.606 594.587C802.563 593.791 804.918 593.238 807.571 592.939C827.549 590.739 855.443 605.598 855.443 605.598C855.443 605.598 854.304 592.729 861.756 596.3C867.903 599.23 868.179 617.019 868.113 623.188C868.401 617.948 869.572 604.869 874.26 607.4C877.378 609.059 878.793 612.409 882.939 625.432C883.414 626.836 883.757 628.495 884.056 630.286Z" fill="#894AFF"/>
<path d="M875.841 632.386C875.62 633.724 875.321 635.073 875.034 636.3C874.061 640.247 872.955 643.442 872.557 644.537C872.801 645.012 873.099 645.443 873.331 645.886C876.018 651.325 877.776 657.196 878.749 663.199C879.268 666.261 879.534 669.335 879.6 672.42C879.633 673.072 879.136 673.603 878.483 673.636C877.942 673.636 877.444 673.26 877.311 672.718C877.3 672.674 877.322 672.596 877.3 672.508L877.278 672.431C877.267 670.12 877.135 667.798 876.88 665.499C876.427 661.143 875.542 656.886 874.194 652.74C864.487 663.962 845.791 656.886 845.603 656.809C845.283 656.676 845.139 656.422 845.261 656.068C845.393 655.747 845.692 655.637 846.001 655.725C846.189 655.803 864.652 662.768 873.707 651.579C873.099 649.899 872.513 648.263 871.761 646.671C870.258 643.475 868.389 640.446 866.344 637.572C861.369 639.617 853.486 638.257 853.143 638.213C852.845 638.158 852.646 637.87 852.69 637.538C852.79 637.262 853.033 637.041 853.364 637.085C853.409 637.118 860.938 638.357 865.647 636.577C862.64 632.619 859.224 628.959 855.366 625.775C848.5 620.004 840.617 615.493 832.358 611.999C831.065 611.436 829.749 610.927 828.4 610.452C821.269 607.754 813.884 605.864 806.3 605.09C814.271 605.764 822.11 607.632 829.661 610.352C830.656 610.695 831.607 611.049 832.568 611.447C840.96 614.797 848.986 619.186 856.106 624.857C856.571 625.244 857.035 625.631 857.455 626.029C858.384 626.803 859.279 627.621 860.186 628.484C862.906 619.694 859.81 607.29 859.777 607.168C859.699 606.859 859.876 606.527 860.186 606.449C860.495 606.372 860.827 606.549 860.905 606.859C861.026 607.367 863.845 618.6 861.678 627.467C861.535 628.075 861.347 628.705 861.115 629.291C861.17 629.357 861.28 629.457 861.336 629.523C865.426 633.558 868.964 638.213 871.761 643.221C872.48 641.187 873.807 636.997 874.647 632.497C875.498 627.876 875.819 622.956 874.359 619.75C874.216 619.495 874.337 619.13 874.647 619.02C874.945 618.865 875.266 618.998 875.41 619.296C876.98 622.702 876.703 627.677 875.841 632.386Z" fill="white"/>
<path d="M919.39 644.304C904.31 645.089 894.227 659.981 893.63 660.932C897.124 658.632 905.084 659.218 906.588 662.557C908.069 665.841 902.342 674.055 886.621 672.087C884.1 671.756 882.165 670.551 880.795 668.804C880.463 668.406 880.142 667.975 879.91 667.477C876.671 661.916 877.168 652.751 878.816 647.333C878.981 646.714 879.169 646.173 879.39 645.686C882.409 638.5 883.393 636.676 885.228 635.891C887.959 634.708 888.036 641.817 887.948 644.956C888.235 641.197 889.374 631.546 892.923 630.197C897.356 628.527 896.03 635.813 896.03 635.813C896.03 635.813 912.68 628.782 923.912 631.048C925.77 631.413 927.329 632.01 928.534 632.784C934.681 636.466 932.403 643.641 919.39 644.304Z" fill="#6D1FFF"/>
<path d="M924.001 638.035C919.689 638.08 915.399 638.787 911.242 639.937C910.468 640.114 909.639 640.357 908.854 640.612C903.945 642.181 899.258 644.37 895.067 647.311C892.702 648.892 890.557 650.805 888.666 652.928C891.253 654.177 895.576 653.845 895.62 653.812C895.786 653.801 895.919 653.956 895.963 654.122C895.974 654.288 895.852 654.464 895.687 654.476C895.477 654.476 890.944 654.851 888.224 653.447C886.897 654.984 885.67 656.587 884.675 658.323C884.166 659.207 883.746 660.103 883.315 661.043C887.914 667.853 898.76 664.835 898.849 664.813C899.025 664.724 899.213 664.846 899.258 665.012C899.335 665.233 899.224 665.377 899.059 665.421C898.937 665.432 887.947 668.505 882.994 661.662C882.01 663.928 881.292 666.327 880.805 668.771C880.551 670.075 880.363 671.391 880.23 672.718L880.219 672.762C880.208 672.806 880.208 672.806 880.208 672.839C880.142 673.16 879.81 673.381 879.501 673.315C879.136 673.281 878.882 672.95 878.948 672.585C879.169 670.86 879.468 669.124 879.921 667.444C880.717 664.039 882.01 660.811 883.835 657.803C884.012 657.549 884.177 657.339 884.343 657.085C884.189 656.443 883.691 654.575 883.337 652.253C883.094 650.772 882.961 649.191 882.983 647.632C882.983 645.741 883.227 643.906 883.978 642.579C884.045 642.425 884.266 642.347 884.41 642.458C884.564 642.524 884.642 642.745 884.531 642.889C883.835 644.105 883.614 645.863 883.614 647.709C883.603 651.07 884.421 654.796 884.808 656.355C886.709 653.58 889.009 651.081 891.596 648.97C891.496 648.627 891.408 648.273 891.353 647.897C891.342 647.731 891.331 647.61 891.32 647.444C890.678 642.392 892.746 636.532 892.845 636.222C892.912 636.068 893.099 635.99 893.254 636.012C893.442 636.09 893.531 636.267 893.453 636.466C893.442 636.51 891.43 642.336 891.983 647.201C892.016 647.654 892.049 648.118 892.171 648.55C892.956 647.93 893.818 647.278 894.669 646.703C899.014 643.829 903.768 641.739 908.732 640.269C909.296 640.092 909.86 639.959 910.424 639.827C914.89 638.699 919.412 637.991 924.001 638.035Z" fill="white"/>
<defs>
<linearGradient id="paint0_linear" x1="510.037" y1="-7.91782" x2="507.703" y2="787.932" gradientUnits="userSpaceOnUse">
<stop stop-color="#FF3777"/>
<stop offset="1" stop-color="#4400FF"/>
</linearGradient>
<linearGradient id="paint1_linear" x1="147.907" y1="628.539" x2="199.346" y2="535.839" gradientUnits="userSpaceOnUse">
<stop stop-color="white"/>
<stop offset="1"/>
</linearGradient>
<linearGradient id="paint2_linear" x1="606.707" y1="108.809" x2="682.424" y2="108.809" gradientUnits="userSpaceOnUse">
<stop stop-color="white"/>
<stop offset="1" stop-color="#FF4777"/>
</linearGradient>
<linearGradient id="paint3_linear" x1="670.537" y1="370.506" x2="960.635" y2="371.332" gradientUnits="userSpaceOnUse">
<stop stop-color="white"/>
<stop offset="1" stop-color="white" stop-opacity="0"/>
</linearGradient>
<linearGradient id="paint4_linear" x1="511.663" y1="431.808" x2="600.141" y2="431.808" gradientUnits="userSpaceOnUse">
<stop stop-color="white"/>
<stop offset="1" stop-color="white" stop-opacity="0"/>
</linearGradient>
<linearGradient id="paint5_linear" x1="908.593" y1="546.983" x2="957.076" y2="631.745" gradientUnits="userSpaceOnUse">
<stop stop-color="white"/>
<stop offset="1" stop-color="#FF4777"/>
</linearGradient>
</defs>
</svg>
